<svg width="86" height="107" viewBox="0 0 86 107" fill="none" xmlns="http://www.w3.org/2000/svg">
<g opacity="0.6">
<path fill-rule="evenodd" clip-rule="evenodd" d="M-1.58529 37.2917C-1.66614 35.5565 -0.791384 31.9901 0.811568 31.6794C3.00077 31.2551 9.7252 33.4849 12.1608 33.7823C12.6167 33.8379 13.7761 34.2668 14.1726 33.9164C14.9199 33.2557 15.4523 31.7172 16.1132 30.9058C19.0344 27.3193 21.666 23.2253 24.9701 19.9883C26.1312 18.8508 28.9057 16.0353 30.9412 16.5691C35.9807 17.8906 30.8856 26.0293 29.7705 28.5184C29.3033 29.5613 28.7932 30.5842 28.4539 31.6773C28.2485 32.3391 26.2105 37.5859 27.3138 37.3046C29.4591 36.7574 32.4117 33.0211 33.8066 31.4884C37.1025 27.8667 40.8631 24.4593 45.0135 21.8434C46.8796 20.6671 50.5306 17.513 52.9395 18.9928C53.8342 19.5424 53.9848 21.5499 54.103 22.4732C54.8267 28.1249 49.925 30.3326 46.7166 33.9397C45.4721 35.339 44.1147 36.8412 43.3418 38.5662C43.2982 38.6636 43.1231 38.7979 43.2109 38.8584C44.0275 39.4216 50.0858 37.1391 51.0398 36.8409C56.2484 35.2137 62.4724 33.7731 67.9565 34.6208C69.0682 34.7927 75.0386 34.835 74.4151 37.7334C73.9734 39.7864 70.7419 40.9631 70.094 41.3C64.3457 44.2897 58.6596 47.3279 52.3655 49.0321C49.8455 49.7145 47.3414 50.2703 44.8733 51.1343C44.7257 51.186 42.636 51.8038 42.8391 52.2395C43.154 52.9148 47.9401 54.7384 48.6973 55.0613C50.2338 55.7166 51.7732 56.3518 53.2983 57.035C57.4801 58.9085 69.8968 62.7849 67.0053 69.6865C66.1811 71.654 63.2266 70.8637 61.5716 70.6283C55.6384 69.7846 50.1588 67.4646 44.6256 65.2508C42.8248 64.5303 41.0642 63.7208 39.2939 62.9277L36.9277 61.8676C39.3052 62.9328 41.0635 65.3955 42.6509 67.3695C46.6282 72.3155 50.0051 78.4507 51.6773 84.6102C52.9616 89.3401 52.4099 94.9005 46.2342 94.2509C38.6932 93.4577 34.461 80.7606 31.293 75.1053C29.9109 72.6378 28.4988 70.2005 27.0117 67.7946C26.5849 67.1042 26.1604 66.4104 25.703 65.7394C25.4759 65.4063 25.232 65.0827 24.9708 64.7759C24.9228 64.7195 24.808 64.5331 24.8309 64.6034C26.645 70.1617 23.738 79.4716 21.7442 84.6166C21.0408 86.4316 19.7294 90.7167 16.8845 89.871C14.7923 89.249 13.76 86.785 13.2064 84.8694C11.8052 80.0209 12.5597 75.0101 13.6501 70.1828C14.0943 68.216 14.5282 66.2487 14.7895 64.2482C14.8024 64.1495 15.0259 61.9556 14.8924 61.9926C14.5737 62.0806 12.7369 66.4955 12.5444 66.9251C10.6382 71.1801 9.21936 76.0607 6.4742 79.8582C5.6624 80.9812 2.69468 84.9168 0.963926 82.7842C-0.433508 81.0622 0.656029 74.5369 0.887575 72.5546C1.60138 66.4424 3.11162 60.8593 5.02089 55.0049C5.74587 52.7817 6.64843 50.2277 7.8995 48.2275C8.30209 47.5838 10.3177 45.0924 9.9046 44.5442C9.684 44.2515 5.47988 41.987 4.82611 41.5673C3.62873 40.7986 -1.50439 39.0269 -1.58529 37.2917Z" fill="#916F66"/>
</g>
</svg>
